<svg width="104" height="24" viewBox="0 0 104 24" fill="none" xmlns="http://www.w3.org/2000/svg">
  <path d="M21.4957 0.293945H24.9677L29.1087 11.5529L33.301 0.293945H34.9623L39.1301 11.5529L43.2956 0.293945H46.7431L40.0979 17.9528H38.3117L34.1194 6.64258L29.9517 17.9528H28.1655L21.4957 0.293945Z" fill="white"/>
  <path d="M52.0549 18.2762C50.155 18.2762 48.681 17.7566 47.6396 16.713C46.6138 15.656 46.1031 14.1508 46.1031 12.1974V5.15298H49.2786V12.1974C49.2786 13.2544 49.5172 14.0661 49.9966 14.628C50.4761 15.1899 51.1629 15.4709 52.0549 15.4709C52.9468 15.4709 53.6337 15.1966 54.1131 14.6525C54.5925 14.0906 54.8311 13.2722 54.8311 12.1974V5.15298H58.0066V12.1974C58.0066 14.1486 57.4937 15.6515 56.4701 16.713C55.4444 17.7544 53.9726 18.2762 52.0549 18.2762ZM59.6277 5.15521H62.8032V5.52761C62.8032 6.12301 62.7786 6.63589 62.7296 7.06404H62.8299C63.2269 6.35269 63.6974 5.81751 64.2437 5.4518C64.7878 5.08832 65.41 4.90769 66.1035 4.90769C66.6498 4.90769 67.1694 5.00804 67.6667 5.2065V8.30612C67.1226 8.07644 66.5495 7.95825 65.9563 7.95825C64.9796 7.95825 64.2125 8.33065 63.6483 9.07545C63.0864 9.80241 62.8054 10.8706 62.8054 12.2754V17.9551H59.63V5.15521H59.6277ZM73.8347 18.2004C72.2804 18.2004 71.0985 17.8124 70.2891 17.0341C69.4952 16.2402 69.0983 14.9179 69.0983 13.067V1.48027H72.2737V5.15521H76.3166V7.93149H72.2737V12.8663C72.2737 13.8096 72.4477 14.4786 72.7933 14.8755C73.1412 15.2546 73.7098 15.4442 74.5037 15.4442C75.1325 15.4442 75.7346 15.2948 76.3144 14.9959V17.7477C75.5718 18.0465 74.7445 18.1959 73.8325 18.1959L73.8347 18.2004ZM77.7282 0.293945H80.9036V5.50309C80.9036 5.90001 80.8791 6.36161 80.83 6.89234H80.9303C81.4276 6.21444 81.9873 5.71047 82.6162 5.37821C83.2606 5.03034 84.0634 4.85863 85.0223 4.85863C86.5922 4.85863 87.7495 5.31354 88.4943 6.22336C89.2547 7.11533 89.636 8.34849 89.636 9.91837V17.9528H86.4606V10.6119C86.4606 9.66861 86.2465 8.94165 85.8161 8.42877C85.4036 7.90027 84.7592 7.63491 83.8828 7.63491C82.9061 7.63491 82.1635 7.96494 81.6506 8.62723C81.1533 9.28952 80.908 10.1637 80.908 11.2563V17.9528H77.7326V0.293945H77.7282ZM95.1886 16.5145L89.6338 5.15521H93.0813L96.7518 13.4149L100.101 5.15521H103.5L95.3402 23.7061H91.9418L95.1908 16.5145H95.1886Z" fill="white"/>
  <path d="M11.8488 4.00457C12.8735 4.00457 13.7042 3.17391 13.7042 2.14926C13.7042 1.1246 12.8735 0.293945 11.8488 0.293945C10.8242 0.293945 9.99353 1.1246 9.99353 2.14926C9.99353 3.17391 10.8242 4.00457 11.8488 4.00457Z" fill="white"/>
  <path d="M14.4824 10.9777C15.507 10.9777 16.3377 10.1471 16.3377 9.1224C16.3377 8.09774 15.507 7.26709 14.4824 7.26709C13.4577 7.26709 12.6271 8.09774 12.6271 9.1224C12.6271 10.1471 13.4577 10.9777 14.4824 10.9777Z" fill="white"/>
  <path d="M9.86202 17.9509C10.8867 17.9509 11.7173 17.1202 11.7173 16.0955C11.7173 15.0709 10.8867 14.2402 9.86202 14.2402C8.83736 14.2402 8.00671 15.0709 8.00671 16.0955C8.00671 17.1202 8.83736 17.9509 9.86202 17.9509Z" fill="white"/>
  <path d="M2.6058 17.9509C3.63046 17.9509 4.46111 17.1202 4.46111 16.0955C4.46111 15.0709 3.63046 14.2402 2.6058 14.2402C1.58114 14.2402 0.750488 15.0709 0.750488 16.0955C0.750488 17.1202 1.58114 17.9509 2.6058 17.9509Z" fill="white"/>
  <path d="M7.22842 10.9777C8.25308 10.9777 9.08373 10.1471 9.08373 9.1224C9.08373 8.09774 8.25308 7.26709 7.22842 7.26709C6.20376 7.26709 5.37311 8.09774 5.37311 9.1224C5.37311 10.1471 6.20376 10.9777 7.22842 10.9777Z" fill="white"/>
</svg>
